Coordinates
version=1
nRows=11
nColumns=40
inDegrees=yes

Units are S.I. units (second, meters, Newtons, ...)
Angles are in degrees.

endheader
time	pelvis_tilt	pelvis_list	pelvis_rotation	pelvis_tx	pelvis_ty	pelvis_tz	hip_flexion_r	hip_adduction_r	hip_rotation_r	knee_angle_r	knee_angle_r_beta	ankle_angle_r	subtalar_angle_r	mtp_angle_r	hip_flexion_l	hip_adduction_l	hip_rotation_l	knee_angle_l	knee_angle_l_beta	ankle_angle_l	subtalar_angle_l	mtp_angle_l	lumbar_extension	lumbar_bending	lumbar_rotation	arm_flex_r	arm_add_r	arm_rot_r	elbow_flex_r	pro_sup_r	wrist_flex_r	wrist_dev_r	arm_flex_l	arm_add_l	arm_rot_l	elbow_flex_l	pro_sup_l	wrist_flex_l	wrist_dev_l
      4.04000000	     -5.11773093	     -3.16513969	      1.72271907	      0.88908844	      1.00586198	     -0.50974256	     33.42530931	      1.64636690	     -7.40663510	     17.57375661	     17.57375661	     -5.85226915	      0.00000000	      0.00000000	    -10.61613063	     -1.75504316	     -0.80564941	     23.33548697	     23.33548697	      0.23579064	      0.00000000	      0.00000000	     -2.87510032	      6.24986815	     -3.80673197	    -18.01503030	    -10.16273780	    -21.73898651	     24.84144354	     19.79712929	      0.00000000	      0.00000000	     -2.50320164	     -9.78826251	      0.77972948	     67.33314688	     17.77152776	      0.00000000	      0.00000000
      4.05000000	     -4.89777212	     -3.43013922	      1.81433351	      0.89192046	      1.00588383	     -0.50845932	     33.00747541	      2.01550784	     -7.17789709	     18.77088117	     18.77088117	     -7.38193801	      0.00000000	      0.00000000	    -10.78889499	     -2.29800311	     -0.89999592	     24.89914767	     24.89914767	     -2.28891889	      0.00000000	      0.00000000	     -2.76873128	      6.50841712	     -3.95101152	    -17.95714012	    -10.15887801	    -21.75505190	     24.67178845	     19.80943017	      0.00000000	      0.00000000	     -3.00204094	     -9.72296897	      0.80012430	     66.95205865	     17.78598388	      0.00000000	      0.00000000
      4.06000000	     -5.38090600	     -4.02773709	      2.21865239	      0.89446478	      1.00443964	     -0.50735302	     33.68205184	      2.23686112	     -8.40663628	     20.79709376	     20.79709376	     -8.42638220	      0.00000000	      0.00000000	     -8.90888419	     -3.49512669	     -1.46022126	     29.01820294	     29.01820294	     -3.83833285	      0.00000000	      0.00000000	     -1.75903714	      7.09785668	     -4.35239040	    -18.07845752	    -10.21009274	    -21.75204276	     24.35655639	     19.91949382	      0.00000000	      0.00000000	     -3.58503012	     -9.66554735	      0.79678005	     66.28577346	     18.00167857	      0.00000000	      0.00000000
      4.07000000	     -4.83673332	     -4.15026592	      2.31862169	      0.89794767	      1.00528597	     -0.50607963	     32.77198090	      2.32870591	     -8.61010542	     22.07064980	     22.07064980	     -9.17825519	      0.00000000	      0.00000000	     -8.98897056	     -4.05853915	     -1.89733108	     31.23527275	     31.23527275	     -6.82013119	      0.00000000	      0.00000000	     -1.95528207	      7.20232011	     -4.36883878	    -18.03291490	    -10.17572639	    -21.76665986	     24.19357838	     19.93277405	      0.00000000	      0.00000000	     -4.09444808	     -9.62083932	      0.85032236	     65.62816578	     18.01293460	      0.00000000	      0.00000000
      4.08000000	     -4.19971748	     -4.36011217	      2.55539796	      0.90106060	      1.00624111	     -0.50478450	     31.83467649	      2.40039013	     -9.15118624	     23.59335082	     23.59335082	     -9.08725364	      0.00000000	      0.00000000	     -8.61343819	     -4.93419577	     -2.60563792	     34.38439927	     34.38439927	     -9.53422257	      0.00000000	      0.00000000	     -2.30546976	      7.37508633	     -4.39614934	    -17.94587589	    -10.11050352	    -21.80764884	     24.04131596	     19.93739310	      0.00000000	      0.00000000	     -4.46155752	     -9.58026861	      0.99341366	     64.74041905	     18.03645828	      0.00000000	      0.00000000
      4.09000000	     -4.93991332	     -5.14705911	      3.18623657	      0.90297527	      1.00501115	     -0.50384802	     32.55119874	      2.64740826	    -10.43516510	     25.39807675	     25.39807675	     -8.54417975	      0.00000000	      0.00000000	     -5.76322957	     -6.57164533	     -2.74781623	     39.13582572	     39.13582572	    -11.51517191	      0.00000000	      0.00000000	     -1.01293884	      8.14961386	     -4.77043441	    -18.13165041	    -10.05266145	    -22.20592084	     24.20653753	     19.88814768	      0.00000000	      0.00000000	     -4.85631452	     -9.50437542	      1.49258097	     63.61509600	     18.21698065	      0.00000000	      0.00000000
      4.10000000	     -4.74720005	     -5.51451939	      3.34903410	      0.90469102	      1.00568075	     -0.50255810	     32.15145455	      2.93776484	    -10.62682428	     27.06053617	     27.06053617	     -7.39222959	      0.00000000	      0.00000000	     -4.23458748	     -7.70170748	     -3.21192036	     42.96877974	     42.96877974	    -14.56013915	      0.00000000	      0.00000000	     -0.99945420	      8.50372540	     -4.55235291	    -17.97916670	    -10.00002643	    -22.30775846	     24.20103697	     19.89485144	      0.00000000	      0.00000000	     -5.03795506	     -9.40168771	      1.80324136	     62.42304700	     18.32381443	      0.00000000	      0.00000000
      4.11000000	     -4.15320769	     -5.63988939	      3.39828439	      0.90583919	      1.00732677	     -0.50134350	     31.05741758	      3.21058910	    -10.26026733	     28.22191541	     28.22191541	     -6.01903556	      0.00000000	      0.00000000	     -3.05386409	     -8.48022682	     -3.41907303	     46.56553934	     46.56553934	    -17.99508498	      0.00000000	      0.00000000	     -1.61524076	      8.62282991	     -4.14744942	    -17.58643744	     -9.94835940	    -22.33152313	     24.20973157	     19.89731088	      0.00000000	      0.00000000	     -5.09569623	     -9.27884167	      1.89059923	     61.38895761	     18.34179948	      0.00000000	      0.00000000
      4.12000000	     -4.84698054	     -6.64625979	      3.71162083	      0.90645430	      1.00701855	     -0.50033980	     31.32705324	      3.93584160	    -11.26455386	     29.18549774	     29.18549774	     -5.05446452	      0.00000000	      0.00000000	      0.17901836	    -10.19891561	     -3.05184473	     50.90334652	     50.90334652	    -21.16020114	      0.00000000	      0.00000000	     -0.55065157	      9.68055629	     -3.88741228	    -17.64152502	     -9.95649398	    -22.76368440	     24.56493619	     19.86424281	      0.00000000	      0.00000000	     -5.15529723	     -9.01289898	      2.69012692	     59.52026362	     18.54266185	      0.00000000	      0.00000000
      4.13000000	     -5.03387854	     -7.13787595	      3.85315864	      0.90686722	      1.00782103	     -0.49936485	     30.86234915	      4.42218029	    -11.45903695	     29.80315178	     29.80315178	     -3.95336876	      0.00000000	      0.00000000	      2.58935752	    -11.10771796	     -2.45349053	     54.40356792	     54.40356792	    -24.15252161	      0.00000000	      0.00000000	     -0.22402117	     10.17557645	     -3.53152838	    -17.37019938	     -9.98842166	    -22.91889419	     24.73960128	     19.92598884	      0.00000000	      0.00000000	     -5.22169565	     -8.74940261	      2.94680685	     58.00588157	     18.75185604	      0.00000000	      0.00000000
      4.14000000	     -4.57968096	     -7.34441332	      3.97967242	      0.90734136	      1.00985549	     -0.49850393	     29.61783825	      4.76853225	    -11.39645653	     30.31959552	     30.31959552	     -2.77468067	      0.00000000	      0.00000000	      4.02103774	    -11.62446634	     -1.94213598	     57.20273153	     57.20273153	    -26.17723514	      0.00000000	      0.00000000	     -0.69821507	     10.38429555	     -3.09695606	    -16.87962976	    -10.01960437	    -22.79805552	     24.91356763	     19.94940897	      0.00000000	      0.00000000	     -5.19133292	     -8.50444635	      3.07531377	     56.37790998	     18.81738649	      0.00000000	      0.00000000
